# xmcd CD database file
#
# Track frame offsets:
#	150
#	15952
#	32067
#	46022
#	65772
#	83750
#	99565
#	119492
#	134912
#	147570
#	163942
#	177230
#	196552
#	215425
#	229655
#	244312
#	259337
#	274212
#	289060
#	301160
#	301932
#	303155
#	304305
#	305362
#	306762
#	307912
#	308937
#	310072
#	311042
#	312135
#	313175
#	314137
#	315047
#	316432
#	317642
#	318785
#	319925
#	321105
#	322320
#
# Disc length: 4309 seconds
#
# Revision: 0
# Processed by: cddbd v1.5.2PL0 Copyright (c) Steve Scherf et al.
# Submitted via: CDex 1.70beta2
#
DISCID=3310d327
DTITLE=5 - Jones Country Recurrent CHC-1158
DYEAR=0000
DGENRE=Country
TTITLE0=Lari White/That's My Baby
TTITLE1=Reba McEntire/Why Haven't I Heard From You
TTITLE2=David Ball/Thinkin' Problem
TTITLE3=Vince Gill/Whenever You Come Around
TTITLE4=Alabama/Cheap Seats
TTITLE5=Hal Ketchum/(Tonight We Just Might) Fall In LoveAgain
TTITLE6=Travis Tritt/Foolish Pride
TTITLE7=Mary-Chapin Carpenter/I Take My Chances
TTITLE8=Neal McCoy/Wink
TTITLE9=John Anderson/I Wish I Could Have Been There
TTITLE10=Tracy Byrd/Lifestyles Of The Not So Rich And Famous
TTITLE11=Tim McGraw/Don't Take The Girl
TTITLE12=Garth Brooks/One Night A Day
TTITLE13=Little Texas/Stop On A Dime
TTITLE14=Sammy Kershaw/National Working Woman's Holiday
TTITLE15=Clay Walker/Dreaming With My Eyes Open
TTITLE16=Alan Jackson/Summertime Blues
TTITLE17=Diamond Rio/Love A Little Stronger
TTITLE18=Tracy Lawrence/Renegades, Rebels and Rogues
TTITLE19=Production/Track 20
TTITLE20=Production/Track 21
TTITLE21=Production/Track 22
TTITLE22=Production/Track 23
TTITLE23=Production/Track 24
TTITLE24=Production/Track 25
TTITLE25=Production/Track 26
TTITLE26=Production/Track 27
TTITLE27=Production/Track 28
TTITLE28=Production/Track 29
TTITLE29=Production/Track 30
TTITLE30=Production/Track 31
TTITLE31=Production/Track 32
TTITLE32=Production/Track 33
TTITLE33=Production/Track 34
TTITLE34=Production/Track 35
TTITLE35=Production/Track 36
TTITLE36=Production/Track 37
TTITLE37=Production/Track 38
TTITLE38=Production/Track 39
EXTD=YEAR: 0000
EXTT0=
EXTT1=
EXTT2=
EXTT3=
EXTT4=
EXTT5=
EXTT6=
EXTT7=
EXTT8=
EXTT9=
EXTT10=
EXTT11=
EXTT12=
EXTT13=
EXTT14=
EXTT15=
EXTT16=
EXTT17=
EXTT18=
EXTT19=
EXTT20=
EXTT21=
EXTT22=
EXTT23=
EXTT24=
EXTT25=
EXTT26=
EXTT27=
EXTT28=
EXTT29=
EXTT30=
EXTT31=
EXTT32=
EXTT33=
EXTT34=
EXTT35=
EXTT36=
EXTT37=
EXTT38=
PLAYORDER=
